<?xml version="1.0" encoding="utf-8"?>
<!-- Generator: Adobe Illustrator 25.0.1, SVG Export Plug-In . SVG Version: 6.00 Build 0)  -->
<svg version="1.1" id="Calque_1" xmlns="http://www.w3.org/2000/svg" xmlns:xlink="http://www.w3.org/1999/xlink" x="0px" y="0px"
	 viewBox="0 0 432 432" style="enable-background:new 0 0 432 432;" xml:space="preserve">
<style type="text/css">
	.st0{fill:#BA9BC9;}
	.st1{fill:#E0999E;}
	.st2{fill:#80C1D8;}
	.st3{fill:#8CC63F;}
	.st4{fill:#F4CC21;}
	.st5{fill:#E5C438;}
	.st6{fill:#F7931E;}
	.st7{fill:#DD5B86;}
	.st8{fill:#FBB03B;}
	.st9{fill:#C1272D;}
	.st10{fill:#CEBB4A;}
	.st11{fill:#B3B3B3;}
	.st12{fill:#CCCCCC;}
	.st13{fill:#C7B299;}
	.st14{fill:#736357;}
	.st15{fill:#B0C491;}
	.st16{fill:#EAC13D;}
	.st17{fill:#B7979A;}
	.st18{fill:#87BFC1;}
	.st19{fill:#9FC1CC;}
	.st20{fill:#29ABE2;}
	.st21{fill:#CEB39D;}
	.st22{fill:#E2BF52;}
	.st23{fill:#C74C7F;}
	.st24{fill:#838BC5;}
	.st25{fill:#DDC63E;}
	.st26{fill:#E8D782;}
	.st27{fill:#998675;}
	.st28{fill:#D1658F;}
	.st29{fill:#EAC44B;}
	.st30{fill:#B9CED6;}
	.st31{fill:#C79C52;}
	.st32{fill:#FCBF33;}
	.st33{fill:#94B447;}
	.st34{fill:#AEC69E;}
</style>
<g>
	<path d="M175.7,160.9c0.1,3.5,0.2,8.7,0.4,13.9c0.1,1.3,0.3,2.6,0.5,3.9c0.6,3.7,2.8,6.3,6,8.1c1.8,1,3.8,1.8,5.8,2.7
		c0.8,0.4,1.7,0.7,2.4,1.1c1.2,0.6,2.3,1.4,2.2,3c-0.1,1.5-1.2,2.3-2.5,2.9c-1.9,0.9-3.8,1.4-5.9,1.6c-7.6,0.9-15.2,1-22.9,0.5
		c-2.2-0.1-4.3-0.4-6.4-1.2c-1.1-0.4-2.1-0.9-3-1.6c-1.9-1.4-1.9-3.3,0-4.7c0.8-0.6,1.7-1,2.6-1.4c1.8-0.8,3.7-1.5,5.5-2.4
		c1.2-0.6,2.2-1.4,3.2-2.2c2.4-2,3.5-4.7,3.9-7.7c0.3-2.8,0.4-5.5,0.5-8.3c0.1-7.4,0.2-14.8,0.2-22.2c0-2-0.2-4-0.4-6
		c-0.2-1.8-0.9-3.4-2.3-4.6c-1.4-1.2-2.1-2.6-2.1-4.5c0-0.6-0.2-1.1-0.3-1.7c-0.2-1-0.7-1.8-1.5-2.4c-0.2-0.1-0.4-0.3-0.6-0.4
		c-4.3-2.9-7.1-7-8.8-11.8c-0.5-1.5-1-2.9-1.5-4.4c-0.6-2.1-1.8-3.6-3.7-4.7c-4.9-2.8-8.6-7-11.8-11.6c-2.9-4.2-4.4-8.9-4.9-13.9
		c-0.1-1.3-0.2-2.6-0.2-3.9c-0.1-1.8,0.7-2.9,2.4-3.5c2.7-1,5.6-1.6,8.4-2.1c9.4-1.5,18.8-2,28.3-1.7c7.5,0.2,14.9,0.9,22.3,2.3
		c1.2,0.2,1.7,0,2.4-1c0.1-0.1,0.2-0.3,0.2-0.4c4.3-7.7,13.4-10.6,21.6-7.1c7.4,3.1,12,10.5,11.6,18.5c-0.4,10-9.4,17.3-19.2,15.7
		c-1-0.2-1.6,0-2.2,0.8c-2.2,3-5,5.4-8.2,7.4c-0.4,0.3-0.8,0.5-1.2,0.8c-1.5,0.9-2.5,2.2-3,3.9c-0.5,1.6-1,3.2-1.6,4.8
		c-1.8,4.9-4.5,9.1-8.9,12c-1.6,1.1-2.2,2.6-2.3,4.3c-0.1,2-0.8,3.5-2.3,4.8c-1.3,1.1-2,2.7-2.2,4.4c-0.2,1.9-0.4,3.9-0.4,5.9
		C175.7,150.8,175.7,155,175.7,160.9z"/>
	<g>
		<g>
			<path d="M252.3,183.3c0-0.5,0-1,0-1.5c0.1-1.2,0.9-2,2-2.1c1.1-0.1,2.1,0.6,2.3,1.8c0.1,0.3,0.1,0.7,0.1,1.1
				c0.1,1.1,0.1,2.1,0.2,3.2c0.1,1.1,0.5,2,1.1,2.9c0.8,1.1,1.9,1.7,3.3,1.6c2.7-0.1,4.8-1.2,6-3.7c0.8-1.8,1.3-3.6,1.6-5.6
				c0.3-2.6,0.3-5.1-0.3-7.6c-0.7-2.9-2.1-5.5-4.4-7.4c-1.6-1.4-3.3-2.6-4.9-3.8c-0.8-0.7-1.7-1.3-2.6-1.9c-2.7-2.1-4.2-4.9-4.6-8.3
				c-0.4-3.2,0-6.4,1.3-9.3c0.4-0.9,1-1.9,1.6-2.7c4.2-5,10.4-2.8,12.7,1.1c1.1,1.8,1.6,3.8,1.9,5.9c0.1,1,0.1,1.9,0.2,2.9
				c0,0.2,0,0.5,0,0.7c-0.2,1.2-1.1,2.1-2.2,2c-1.2,0-2.1-0.9-2.2-2.2c0-1.7-0.1-3.3-0.6-4.9c-0.2-0.7-0.5-1.4-0.9-2.1
				c-1.3-2.3-4.1-2.4-5.6-0.3c-0.2,0.3-0.4,0.6-0.6,1c-1.1,2.7-1.6,5.4-0.9,8.3c0.4,1.8,1.3,3.3,2.7,4.4c1.1,0.8,2.2,1.6,3.2,2.4
				c1.4,1.1,2.9,2.2,4.3,3.4c4.1,3.5,6.1,8.1,6.5,13.4c0.3,4.3-0.2,8.4-2,12.4c-1.1,2.3-2.6,4.2-4.9,5.4c-2,1-4.2,1.5-6.4,1.2
				c-3.7-0.5-5.9-2.7-7.2-6c-0.2-0.6-0.4-1.3-0.5-2C252.4,185.6,252.3,184.4,252.3,183.3C252.2,183.3,252.3,183.3,252.3,183.3z"/>
			<path d="M228.6,144.5c0-0.5,0-1-0.1-1.6c-0.1-1-0.4-1.2-1.3-1.2c-1.5,0-2.9,0-4.4,0c-0.5,0-1,0-1.4-0.2c-1.5-0.5-2-2.5-0.8-3.6
				c0.4-0.3,0.9-0.5,1.4-0.7c0.2-0.1,0.5,0,0.8,0c5.6,0,11.2,0,16.9,0c0.4,0,0.8,0,1.2,0c1.1,0.1,1.9,1,2,2.1c0.1,1.1-0.7,2-1.8,2.3
				c-0.4,0.1-0.8,0.1-1.2,0.1c-1.5,0-3.1,0-4.6,0c-0.4,0-0.9,0-1.3,0.1c-0.4,0.1-0.7,0.3-0.7,0.8c0,0.3,0,0.5,0,0.8
				c0,16,0.1,32,0.1,48.1c0,0.5,0,1-0.1,1.5c-0.2,1-1.1,1.7-2.1,1.7c-1.1,0-2-0.7-2.2-1.8c-0.1-0.3-0.1-0.7-0.1-1.1
				C228.8,183.9,228.6,152.3,228.6,144.5z"/>
			<path d="M216.9,191c0,0.4,0,0.9,0,1.3c-0.2,1.3-1.2,2.3-2.5,2.3c-1.2,0-2.3-0.8-2.5-2.1c-0.1-0.4-0.1-0.8-0.1-1.2
				c0-17,0.1-34,0.2-51.1c0-0.4,0-0.8,0.1-1.2c0.3-1.2,1.3-1.9,2.4-1.9c1.2,0,2.1,0.8,2.4,2c0.1,0.4,0.1,0.9,0.1,1.3
				C217.1,148.9,216.9,182.6,216.9,191z"/>
			<path d="M251.4,140.3c0,1.8-0.7,3.3-2,4.5c-0.3,0.3-0.8,0.6-1.2,0.7c-1,0.3-1.9-0.5-1.6-1.5c0.3-1,0-1.7-0.5-2.5
				c-0.7-1.1-0.7-2.2,0-3.3c0.7-1,1.7-1.4,3-1.2c1.2,0.2,2.1,1.2,2.3,2.4C251.4,139.7,251.4,140.1,251.4,140.3z"/>
		</g>
		<g>
			<path d="M206.9,327.8c0-2.6,0.1-5.2,0.7-7.7c0.3-1.2,0.7-2.3,1.2-3.4c1.1-2.2,2.9-3.6,5.3-4c2.5-0.4,4.9-0.4,7.4,0
				c2.2,0.4,3.9,1.7,5,3.7c1,1.9,1.6,3.9,1.7,6c0.2,2.3,0.4,4.6,0.4,6.9c0.1,8.2,0.1,16.3,0,24.5c0,2.8-0.2,5.5-0.8,8.2
				c-0.1,0.6-0.3,1.1-0.5,1.6c-1.1,3.3-3.5,5-6.9,5.5c-1.5,0.2-3.1,0.4-4.6,0.2c-1.3-0.2-2.6-0.5-3.8-1c-2.8-1.3-4-3.6-4.6-6.5
				c-0.5-2.7-0.6-5.4-0.6-8.1C206.8,349.3,206.8,332,206.9,327.8z M223.4,324c-0.1-1.6-0.3-3.2-1-4.7c-0.5-1.2-1.4-1.9-2.6-2.1
				c-1.6-0.2-3.2-0.2-4.8,0.1c-0.8,0.2-1.5,0.7-1.8,1.5c-0.3,0.8-0.7,1.7-0.8,2.5c-0.3,1.8-0.5,3.7-0.5,5.6
				c-0.1,8.1-0.2,16.1-0.2,24.2c0,2.4,0.2,4.9,0.4,7.3c0.1,1.3,0.5,2.6,1.1,3.8c0.7,1.3,1.7,2.1,3.1,2.3c1,0.2,2.1,0.2,3.1,0.1
				c1.7-0.2,2.9-1.1,3.4-2.8c0.2-0.7,0.4-1.5,0.5-2.2c0.4-2.9,0.5-5.8,0.5-8.7C223.8,347.8,223.6,329.8,223.4,324z"/>
			<path d="M133.9,327.8c0-2.6,0.1-5.2,0.7-7.7c0.3-1.2,0.7-2.3,1.2-3.4c1.1-2.2,2.9-3.6,5.3-4c2.5-0.4,4.9-0.4,7.4,0
				c2.2,0.4,3.9,1.7,5,3.7c1,1.9,1.6,3.9,1.7,6c0.2,2.3,0.4,4.6,0.4,6.9c0.1,8.2,0.1,16.3,0,24.5c0,2.8-0.2,5.5-0.8,8.2
				c-0.1,0.6-0.3,1.1-0.5,1.6c-1.1,3.3-3.5,5-6.9,5.5c-1.5,0.2-3.1,0.4-4.6,0.2c-1.3-0.2-2.6-0.5-3.8-1c-2.8-1.3-4-3.6-4.6-6.5
				c-0.5-2.7-0.6-5.4-0.6-8.1C133.8,349.3,133.8,332,133.9,327.8z M150.4,324c-0.1-1.6-0.3-3.2-1-4.7c-0.5-1.2-1.4-1.9-2.6-2.1
				c-1.6-0.2-3.2-0.2-4.8,0.1c-0.8,0.2-1.5,0.7-1.8,1.5c-0.3,0.8-0.7,1.7-0.8,2.5c-0.3,1.8-0.5,3.7-0.5,5.6
				c-0.1,8.1-0.2,16.1-0.2,24.2c0,2.4,0.2,4.9,0.4,7.3c0.1,1.3,0.5,2.6,1.1,3.8c0.7,1.3,1.7,2.1,3.1,2.3c1,0.2,2.1,0.2,3.1,0.1
				c1.7-0.2,2.9-1.1,3.4-2.8c0.2-0.7,0.4-1.5,0.5-2.2c0.4-2.9,0.5-5.8,0.5-8.7C150.8,347.8,150.6,329.8,150.4,324z"/>
			<path d="M262.7,326.6c0,3.9,0,7.9,0,11.8c0,0.3,0,0.6,0,0.9c0,0.1,0.1,0.2,0.2,0.3c0.1,0,0.3,0,0.3-0.1c0.1-0.3,0.3-0.5,0.4-0.8
				c3.3-8.1,6.7-16.1,10-24.2c0.1-0.3,0.3-0.7,0.4-1c0.7-1.2,2-1.7,3.2-1.2c1.2,0.5,1.8,1.8,1.4,3.1c-0.1,0.4-0.3,0.8-0.5,1.2
				c-4.2,10.3-8.5,20.6-12.7,30.9c-0.2,0.5-0.3,1-0.4,1.5c-0.1,0.6,0.1,0.9,0.6,1c3.6,1,5.4,3.6,6.4,7c0.5,1.7,0.8,3.5,1.2,5.3
				c0.1,0.6,0.3,1.2,0.5,1.7c0.2,0.6,0.7,1,1.4,1.1c0.3,0,0.5,0.1,0.8,0.1c1.3,0.3,2.1,1.4,1.9,2.7c-0.1,1.2-1.1,2.2-2.4,2.2
				c-2.6,0.1-4.6-1-5.9-3.2c-0.8-1.3-1.1-2.8-1.4-4.3c-0.3-1.5-0.6-3-1-4.5c-0.2-0.9-0.6-1.8-1.3-2.5c-0.5-0.5-1.2-0.8-2-0.7
				c-0.7,0.1-0.9,0.3-1.1,1c-0.1,0.3-0.1,0.7-0.1,1c0,3.1,0,6.2,0,9.3c0,0.4,0,0.8-0.1,1.2c-0.2,1.3-1.3,2.2-2.6,2.1
				c-1.2,0-2.2-1-2.4-2.2c0-0.3,0-0.6,0-0.9c0-17-0.1-34-0.1-51.1c0-0.6,0-1.1,0.1-1.7c0.3-1.2,1.3-2,2.5-1.9
				c1.2,0.1,2.2,0.9,2.4,2.1c0.1,0.4,0.1,0.8,0.1,1.2C262.7,318.9,262.7,322.7,262.7,326.6C262.7,326.6,262.7,326.6,262.7,326.6z"/>
			<path d="M233.5,328c0-2.6,0.1-5.3,0.7-7.8c0.6-2.5,1.8-4.5,3.8-6.1c4.2-3.3,10.1-2.2,12.8,2.5c1,1.7,1.4,3.5,1.7,5.4
				c0.2,1.4,0.2,2.8,0.3,4.2c0,0.3,0,0.5,0,0.8c-0.2,1.3-1.3,2.2-2.6,2.2c-1.3,0-2.3-1-2.4-2.3c-0.1-1.4-0.2-2.8-0.4-4.2
				c-0.1-0.9-0.3-1.7-0.6-2.6c-0.3-0.7-0.7-1.4-1.2-1.9c-1.2-1.2-2.9-1.3-4.3-0.3c-1.6,1.1-2.3,2.6-2.5,4.4
				c-0.2,1.5-0.4,3.1-0.4,4.7c0,9.2,0,18.5,0,27.7c0,2,0.1,4,0.6,5.9c0.2,0.9,0.6,1.7,1,2.5c0.5,0.9,1.3,1.4,2.4,1.4
				c0.5,0,1,0,1.5,0c1.4-0.2,2.5-0.9,3-2.2c0.3-0.7,0.5-1.5,0.5-2.3c0.1-1.3,0-2.7-0.1-4c0-0.6,0-1.2,0.1-1.7c0.2-1.1,1-1.9,2-2.1
				c1.2-0.2,2.2,0.4,2.7,1.5c0.2,0.4,0.3,0.8,0.3,1.2c0.2,2.5,0.3,5-0.3,7.5c-1.3,5.7-7.1,8.7-12.6,6.5c-1.8-0.7-3.1-1.9-4-3.6
				c-1.1-1.9-1.6-3.9-1.8-6c-0.2-3.6-0.3-7.3-0.4-10.9C233.4,346,233.4,332.3,233.5,328z"/>
			<path d="M165.3,328c0-2.6,0.1-5.3,0.7-7.8c0.6-2.5,1.8-4.5,3.8-6.1c4.2-3.3,10.1-2.2,12.8,2.5c1,1.7,1.4,3.5,1.7,5.4
				c0.2,1.4,0.2,2.8,0.3,4.2c0,0.3,0,0.5,0,0.8c-0.2,1.3-1.3,2.2-2.6,2.2c-1.3,0-2.3-1-2.4-2.3c-0.1-1.4-0.2-2.8-0.4-4.2
				c-0.1-0.9-0.3-1.7-0.6-2.6c-0.3-0.7-0.7-1.4-1.2-1.9c-1.2-1.2-2.9-1.3-4.3-0.3c-1.6,1.1-2.3,2.6-2.5,4.4
				c-0.2,1.5-0.4,3.1-0.4,4.7c0,9.2,0,18.5,0,27.7c0,2,0.1,4,0.6,5.9c0.2,0.9,0.6,1.7,1,2.5c0.5,0.9,1.3,1.4,2.4,1.4
				c0.5,0,1,0,1.5,0c1.4-0.2,2.5-0.9,3-2.2c0.3-0.7,0.5-1.5,0.5-2.3c0.1-1.3,0-2.7-0.1-4c0-0.6,0-1.2,0.1-1.7c0.2-1.1,1-1.9,2-2.1
				c1.2-0.2,2.2,0.4,2.7,1.5c0.2,0.4,0.3,0.8,0.3,1.2c0.2,2.5,0.3,5-0.3,7.5c-1.3,5.7-7.1,8.7-12.6,6.5c-1.8-0.7-3.1-1.9-4-3.6
				c-1.1-1.9-1.6-3.9-1.8-6c-0.2-3.6-0.3-7.3-0.4-10.9C165.2,346,165.2,332.3,165.3,328z"/>
			<path d="M195.3,363c0,0.2,0,0.4,0,0.6c0,0.8,0.1,1,1,1c1.9,0,3.9,0.1,5.8,0.1c0.4,0,0.9,0,1.3,0.1c1.2,0.2,2.1,1.2,2.2,2.5
				c0,1.3-0.9,2.3-2.2,2.5c-0.3,0-0.6,0-0.9,0c-2.9,0-5.9-0.1-8.8-0.1c-0.3,0-0.5,0-0.8,0c-1.3-0.1-2.2-0.9-2.5-2.2
				c-0.1-0.5-0.2-1-0.2-1.5c0-16.9,0-33.8,0-50.7c0-0.5,0-1,0.2-1.5c0.3-1.1,1.3-1.8,2.4-1.7c1.1,0,2.1,0.8,2.4,1.9
				c0.1,0.5,0.2,1,0.2,1.6C195.3,323.5,195.3,355.1,195.3,363z"/>
			<path d="M162.7,315.3c0,1.8-0.7,3.3-2,4.5c-0.3,0.3-0.8,0.6-1.2,0.7c-1,0.3-1.9-0.5-1.6-1.5c0.3-1,0-1.7-0.5-2.5
				c-0.7-1.1-0.7-2.2,0-3.3c0.7-1,1.7-1.4,3-1.2c1.2,0.2,2.1,1.2,2.3,2.4C162.7,314.8,162.7,315.1,162.7,315.3z"/>
			<g>
				<path d="M286.9,336.4c0.1,7,0.1,14,0.2,21c0,0.5,0,0.9,0,1.4c-0.2,1.2-1.1,2-2.2,2c-1.1,0-2.1-0.9-2.2-2.1c0-0.3,0-0.6,0-0.9
					c-0.1-14.2-0.3-28.5-0.4-42.7c0-0.5,0-0.9,0-1.4c0.1-1.2,1.1-2,2.1-2c1.1,0,2,0.7,2.2,1.8c0.1,0.4,0.1,0.8,0.1,1.3
					C286.8,322,286.9,329.2,286.9,336.4C286.9,336.4,286.9,336.4,286.9,336.4z"/>
				<path d="M284.8,369.5c-1.6,0-3-1.4-3.1-3c0-1.7,1.4-3.1,3.1-3.1c1.7,0,3,1.4,3.1,3C287.9,368,286.5,369.4,284.8,369.5z"/>
			</g>
		</g>
		<g>
			<path d="M201.6,271.2c-0.3,1.9-0.7,3.8-1,5.7c-0.3,2.5-0.5,4.9-0.7,7.4c-0.2,2.7-1.7,4.5-4.4,5.3c-2.5,0.8-4.5,0.1-6.1-2.2
				c-2.7-3.9-4.9-8-6.3-12.5c-0.9-2.9-1.7-5.8-2.6-8.9c-0.3,0.5-0.6,0.9-0.7,1.3c-2.3,5.2-4.7,10.5-7,15.7c-0.4,1-0.9,1.9-1.4,2.8
				c-3,5.3-8.5,7.4-14.3,5.4c-2.9-1-5.3-2.8-7.5-5c-3.8-4-6.2-8.7-7.7-14c-1.6-5.6-2.4-11.2-2.3-17c0-0.6,0-1.2,0-1.9
				c0-0.1-0.1-0.2-0.2-0.5c-1,0.5-2.1,0.9-3,1.6c-0.5,0.4-0.6,1.3-0.6,2c-0.4,4-1.3,7.8-2.7,11.5c-0.9,2.3-1.9,4.6-3.1,6.7
				c-0.7,1.4-1.7,2.7-2.7,4c-5.7,6.8-14.6,6.8-20.5,0.2c-2.7-3-4.3-6.6-5.2-10.5c-0.5-2.1-0.9-4.2-1.4-6.5c-0.4,0.5-0.7,0.9-1,1.3
				c-2.6,3.7-5.1,7.4-7.9,11c-1.8,2.3-3.7,4.5-5.8,6.4c-7.8,6.9-17.1,5.2-23.2-1.2c-1.4-1.5-2.8-3.2-3.7-5.1
				c-5-10.5-6-21.4-2.6-32.6c1-3.5,2.8-6.6,5.5-9.1c2.5-2.3,5.3-3.8,8.7-4.3c4.9-0.8,8.9,0.7,11.7,4.9c2.7,3.9,3.6,8.4,3.4,13
				c0,1.2-0.3,2.4-0.5,3.7c-0.1,0.4-0.2,0.8-0.4,1.2c-0.5,0.9-1.3,1.3-2.3,1.1c-0.9-0.2-1.3-0.8-1.4-1.7c-0.2-2.1-0.4-4.2-0.7-6.3
				c-0.4-2.9-1.3-5.7-3-8.1c-2.2-3-3.7-3-5.6,0.2c-1.8,3.1-2.9,6.4-3.5,9.9c-1.5,9-0.4,17.6,4.2,25.6c1,1.7,2.3,3.2,3.6,4.7
				c1,1.1,2.2,1.1,3.5,0.4c2.5-1.4,4.7-3.2,6.6-5.3c5-5.6,9.3-11.7,13.7-17.9c-0.5-0.5-0.9-0.9-1.3-1.3c-5.3-5.7-7.3-12.3-4.9-19.8
				c2.5-7.6,7.8-12.5,15.8-13.7c7.5-1.1,13.9,1.4,18.9,7.2c4.4,5.1,6.8,11.1,7.6,17.8c0.2,1.9,0.3,3.9,0.5,6.1
				c1.4-0.6,2.5-1.2,3.5-2.1c0.4-0.4,0.5-1.2,0.7-1.8c0.7-3.6,1.9-7,3.8-10.2c1.7-2.9,4.1-5.2,7.1-6.8c1.8-1,3.8-1.5,5.8-1.7
				c3.2-0.3,6,0.6,8.4,2.7c4,3.4,5.9,7.8,6.8,12.8c0.1,0.6,0.1,1.2,0,1.8c-0.1,1-0.9,1.7-1.9,1.8c-0.9,0.1-1.6-0.4-1.8-1.5
				c-0.4-1.4-0.7-2.8-1.1-4.1c-0.9-2.6-2.3-4.8-4.4-6.6c-0.7-0.6-1.5-1.1-2.3-1.5c-0.9-0.5-1.7-0.3-2.3,0.4
				c-0.6,0.7-1.2,1.4-1.6,2.3c-3.2,6.9-4.6,14.2-4.1,21.8c0.5,7.5,2.5,14.6,5.6,21.4c0.7,1.6,1.7,3,2.7,4.4c0.5,0.7,1.1,1.3,1.8,1.8
				c0.9,0.7,1.4,0.7,2.1-0.2c1-1.3,2-2.6,2.7-4c2.9-5.8,5.9-11.7,8.6-17.6c2.8-6,2.5-6.1,2.1-12.8c-0.5-8.4-0.4-16.8,2-25
				c1.3-4.3,3.3-8.1,6.7-11.2c2.7-2.5,5.9-3.8,9.6-3.6c4.1,0.3,7,2.3,8.5,6.1c1.6,4,1.6,8.2,0.5,12.4c-1.9,7.3-6.1,13.3-11.9,18.1
				c-1.7,1.4-2.3,2.6-2,4.8c0.6,5,1.5,10,2.7,14.9c0.1,0.2,0.2,0.4,0.4,1c0.3-0.8,0.5-1.3,0.7-1.8c2.6-8.1,6.1-15.8,11-22.8
				c2.1-2.9,4.3-5.6,7.3-7.6c2.7-1.9,5.6-3,8.9-2.6c5.5,0.7,8.7,4.9,7.9,10.5c-0.5,3.8-2.3,6.9-5.2,9.4c-3.3,2.9-7.2,4.5-11.4,5.5
				c-0.5,0.1-1.1,0.2-1.9,0.4c0.2,1.7,0.4,3.4,0.7,5.1c0.8,4.1,1.7,8.2,3.4,12.1c0.7,1.6,1.6,3.2,2.6,4.7c0.6,0.9,1.5,1.5,2.5,2.5
				c0.9-0.9,1.8-1.5,2.4-2.3c4.9-6.2,8.8-13,12-20.2c0.3-0.6,0.4-1.3,0.3-2c-0.8-8.6-1.1-17.1-0.9-25.7c0-2,0.2-3.9,0.3-6.1
				c-1.3-0.1-2.4-0.2-3.6-0.2c-4.6,0-9.1,0.5-13.5,2c-0.9,0.3-1.8,0.5-2.7,0.6c-0.8,0.1-1.8-0.2-1.9-1.1c-0.1-0.5,0.3-1.4,0.8-1.7
				c1.6-1,3.2-2,4.9-2.6c3.7-1.3,7.6-1.8,11.5-1.9c1.6,0,3.2,0,4.9,0c0.3-0.9,0.5-1.7,0.7-2.5c1.1-3.2,3.8-4.8,7.1-4.1
				c2.1,0.5,3.5,1.8,4.1,3.9c0.3,1.1,0.5,2.3,0.7,3.5c5.9,0.4,11.7,0.2,17.1-2.8c1.9-1,3.4-2.4,4.8-4.1c0.8-1,1.8-1.7,3.1-1.7
				c2,0.1,2.9,1.4,1.8,3.1c-0.8,1.3-1.8,2.5-2.9,3.6c-4.6,4.3-10.1,6.3-16.3,6.8c-1.8,0.1-3.7,0.1-5.6,0.1c-0.6,0-1.2,0-2,0
				c-0.7,20,1,39.7,6,59.1c0.2-0.3,0.4-0.7,0.5-1c1.1-3.8,2.2-7.6,3.4-11.4c0.3-0.9,0.1-1.7-0.2-2.5c-2.6-7-3.1-14.3-2.5-21.7
				c0.3-3,0.9-6,2-8.8c0.9-2.3,2.1-4.5,3.8-6.3c4.4-4.8,11-5.8,16.5-2.3c2,1.2,3.6,2.9,5.3,4.6c1.2,1.2,2.3,2.6,3.6,4.2
				c0.2-0.8,0.3-1.4,0.5-2c0.3-1.2,0.6-2.4,1.1-3.5c0.9-2.1,2.6-3.2,4.9-3.5c2.9-0.3,5.4,1.2,5.9,4.1c0.5,2.5,0.5,5.2,0.5,7.7
				c0.1,4.2,0,8.4,0.1,12.6c0.1,6.9,1.3,13.6,2.6,20.4c0.5,2.8,1.3,5.5,2,8.3c0.3,1,0.8,1.9,1.3,3.1c0.4-0.5,0.7-0.8,0.9-1.1
				c2.9-5.6,5-11.4,7-17.3c0.2-0.5,0.2-1.1,0.1-1.6c-1.3-6.6-1.6-13.3-1.3-19.9c0.2-4.1,0.5-8.1,1.1-12.2c0.7-4.5,4.4-6.8,8.5-5.5
				c2,0.6,3.5,1.9,3.7,4c0.2,2.5,0.3,5.1,0.2,7.6c-0.3,7-0.5,14.1,0.5,21.1c0.6,4.3,1.9,8.5,3.8,12.3c0.7,1.5,1.8,2.8,2.9,4
				c1.4,1.4,2.5,1.5,4.1,0.4c1.3-0.9,2.5-2,3.6-2.9c0-0.4,0-0.5-0.1-0.6c-3.5-5.8-5.2-12.1-6.4-18.6c-1.5-7.6-2.1-15.3-1.5-23.1
				c0.4-6,1.6-11.9,4.9-17.1c1.1-1.8,2.5-3.6,4.1-5c2.9-2.7,6.4-3.7,10.3-2.7c3.1,0.7,5.2,2.7,6.7,5.4c1.6,3,2.4,6.3,2.9,9.7
				c1.4,9.1,0.6,18.1-1.9,27c-1.7,6-3.9,11.8-6.8,17.4c-0.6,1.1-0.5,1.9,0,2.9c1.3,2.6,2.7,5,4.6,7.1c1,1,2.1,2,3.3,2.7
				c2.2,1.3,3.8,1,5.4-1c0.8-1.1,1.5-2.3,2.1-3.5c1.8-3.9,2.7-8.1,3.4-12.3c0.4-2.6,0.7-5.3,1.2-7.9c0.3-1.7,1.1-2.6,2.5-2.8
				c1.5-0.2,2.4,0.5,2.3,2.1c-0.1,1.5-0.3,3-0.4,4.4c-0.6,5.2-1.2,10.5-3,15.4c-0.7,2.1-1.7,4.2-2.9,6c-3.7,5.4-9.6,7.5-15.9,5.8
				c-3.5-1-6.6-2.8-9.3-5.2c-0.5-0.4-0.9-0.8-1.5-1.4c-0.4,0.4-0.8,0.7-1.2,1.1c-1.9,1.8-4,3.3-6.5,4.2c-5,1.9-9.7,1.3-14-2
				c-2.5-1.9-4.4-4.3-5.9-7c-0.3-0.5-0.6-1-1-1.8c-0.3,0.8-0.5,1.3-0.8,1.9c-1.5,3.6-2.9,7.2-4.5,10.8c-0.5,1.1-1.2,2.2-1.9,3.1
				c-2.2,2.7-5.6,3.2-8.5,1.3c-1.4-0.9-2.6-2.1-3.7-3.3c-4.3-4.7-6.7-10.3-8-16.5c-0.5-2.1-0.8-4.2-1.2-6.6c-0.4,0.5-0.7,0.9-1,1.2
				c-2.1,3.1-4.2,6.1-6.3,9.2c-0.6,0.9-1.4,1.8-2.2,2.5c-3.5,3.3-8.6,3.7-12.6,1c-0.9-0.6-1.7-1.3-2.6-2c-0.2,0.4-0.4,0.8-0.5,1.1
				c-1.2,3.9-2.4,7.9-3.7,11.8c-0.5,1.5-1.5,2.7-2.9,3.5c-2.3,1.2-4.5,1.3-6.6-0.2c-1.1-0.8-2.2-1.9-3.1-2.9
				c-3.6-4.5-5.6-9.7-7-15.2c-0.5-2-0.8-4-1.2-6c-0.1-0.6-0.3-1.3-0.5-2.3c-0.5,0.8-0.8,1.3-1.1,1.8c-2.5,4.1-4.9,8.1-7.5,12.2
				c-1.1,1.7-2.4,3.1-4.1,4.2c-3.3,2.1-6.8,2.4-10.4,0.6c-2.5-1.2-4.5-3-6.3-5.1c-2.3-2.8-4.2-6-5.4-9.4c-0.3-0.7-0.5-1.4-0.8-2
				C201.9,271.3,201.7,271.3,201.6,271.2z M113.3,255c5,1,9.5,0.4,14-1c1.5-0.5,1.5-0.5,1.6-2c0.2-3.8,0-7.5-0.8-11.2
				c-0.9-4.1-2.2-8.1-4.7-11.6c-1.6-2.3-3.5-4.2-6-5.4c-4.6-2.3-9-1.9-13.1,1.1c-3.3,2.5-5.1,6-5.8,10c-0.7,3.9-0.1,7.6,2.1,11.3
				c0.4-1.4,0.7-2.5,1-3.6c1.1-3.1,3.8-4.8,7-4.6c3,0.2,4.8,2,5,4.9c0.1,1.6-0.1,3.2-0.1,4.8C113.5,250.2,113.4,252.5,113.3,255z
				 M274.1,276.3c0.2,0,0.4,0.1,0.6,0.1c0.4-0.5,0.7-1,1.1-1.5c4.1-4.9,7.6-10.3,10.8-15.9c0.3-0.5,0.4-1.2,0.4-1.8
				c0-2.5,0-5.1,0-7.6c0-0.6-0.2-1.4-0.5-1.9c-2-3-4.2-5.8-6.9-8.2c-1.1-0.9-2.2-1.8-3.4-2.5c-2.2-1.3-2.9-1-4.1,1.2
				c-0.3,0.6-0.6,1.2-0.8,1.9c-1.5,3.8-2.1,7.9-2.2,12c-0.3,7.5,1.4,14.6,3.9,21.6C273.2,274.6,273.7,275.4,274.1,276.3z
				 M349.5,262.7c0.2-0.1,0.3-0.1,0.3-0.1c0.2-0.3,0.3-0.5,0.5-0.8c3.8-8.6,6.3-17.5,6.7-27c0.2-4.9-0.1-9.8-1.6-14.5
				c-0.5-1.4-1.1-2.7-2-4c-0.9-1.4-1.8-1.4-2.7,0.1c-0.8,1.3-1.6,2.8-2,4.3c-1.3,3.9-1.9,8-2.3,12.2c-0.5,5.6-0.2,11.1,0.5,16.6
				C347.4,254,348.2,258.3,349.5,262.7z M191.8,244.1c0.5-0.4,0.7-0.6,0.9-0.8c3.1-3.4,5.5-7.3,7.3-11.6c1.2-3,1.7-6.2,1.4-9.5
				c-0.2-1.9-0.6-3.7-1.7-5.2c-0.9-1.3-1.7-1.4-2.6-0.1c-0.9,1.4-1.7,3-2.3,4.6c-1.8,4.9-2.7,10-3,15.2
				C191.7,239.1,191.8,241.5,191.8,244.1z M113.6,259.6c0.6,6.5,3.3,13.7,6,16c3.4-2.2,8.3-12.6,8.2-17.5c-2.3,0.4-4.6,0.9-6.9,1.1
				C118.5,259.5,116.1,259.4,113.6,259.6z M208.3,253.1c1.1,0.1,2.1,0.2,3.1,0.3c5.5,0.3,10.7-4,11.6-9.4c0.2-1.5,0.2-3-0.4-4.4
				c-0.5-1.3-1.1-1.6-2.3-1c-1.3,0.6-2.5,1.4-3.6,2.3c-3.7,3.2-6.2,7.3-8.4,11.7C208.3,252.7,208.3,252.8,208.3,253.1z"/>
			<path d="M326.4,221.8c0,3.8-3.1,6.9-7,6.9c-3.7,0-6.8-3.1-6.8-6.9c0-3.8,3-6.8,6.8-6.9C323.3,214.9,326.4,217.9,326.4,221.8z"/>
		</g>
	</g>
</g>
</svg>
